curl
version=1
nRows=148
nColumns=3
inDegrees=yes
endheader
time	r_shoulder_elev	r_elbow_flex
0.0000	23.098009	17.376097
0.0100	23.114358	17.379170
0.0200	23.130925	17.382072
0.0300	23.147645	17.384727
0.0400	23.164454	17.387053
0.0500	23.181289	17.388963
0.0600	23.198083	17.390366
0.0700	23.214773	17.391168
0.0800	23.231295	17.391271
0.0900	23.247585	17.390577
0.1000	23.263583	17.388984
0.1100	23.279228	17.386396
0.1200	23.294460	17.382714
0.1300	23.309222	17.377845
0.1400	23.323459	17.371699
0.1500	23.337115	17.364195
0.1600	23.350138	17.355255
0.1700	23.362476	17.344815
0.1800	23.374079	17.332818
0.1900	23.384901	17.319222
0.2000	23.394894	17.303996
0.2100	23.404014	17.287125
0.2200	23.412221	17.268609
0.2300	23.419473	17.248468
0.2400	23.425735	17.226736
0.2500	23.430973	17.203469
0.2600	23.435157	17.178741
0.2700	23.438262	17.152648
0.2800	23.440265	17.125304
0.2900	23.441151	17.096846
0.3000	23.440908	17.067430
0.3100	23.439532	17.037233
0.3200	23.437024	17.006451
0.3300	23.433391	16.975301
0.3400	23.428648	16.944013
0.3500	23.422818	16.912838
0.3600	23.415930	16.882038
0.3700	23.408021	16.851886
0.3800	23.399134	16.822668
0.3900	23.389322	16.794674
0.4000	23.378642	16.768195
0.4100	23.367160	16.743527
0.4200	23.354945	16.720956
0.4300	23.342074	16.700764
0.4400	23.328628	16.683219
0.4500	23.314689	16.668571
0.4600	23.300345	16.657051
0.4700	23.285683	16.648863
0.4800	23.270792	16.644182
0.4900	23.255758	16.643150
0.5000	23.240668	16.645873
0.5100	23.225603	16.652416
0.5200	23.210641	16.662805
0.5300	23.195855	16.677021
0.5400	23.181312	16.695000
0.5500	23.167072	16.716637
0.5600	23.153188	16.741779
0.5700	23.139706	16.770233
0.5800	23.126663	16.801763
0.5900	23.114091	16.836096
0.6000	23.102014	16.872924
0.6100	23.090447	16.911908
0.6200	23.079401	16.952681
0.6300	23.068881	16.994858
0.6400	23.058887	17.038035
0.6500	23.049414	17.081799
0.6600	23.040455	17.125735
0.6700	23.031997	17.169427
0.6800	23.024030	17.212473
0.6900	23.016540	17.254482
0.7000	23.009513	17.295089
0.7100	23.002934	17.333955
0.7200	22.996790	17.370775
0.7300	22.991069	17.405282
0.7400	22.985760	17.437253
0.7500	22.980853	17.466510
0.7600	22.976338	17.492923
0.7700	22.972209	17.516413
0.7800	22.968459	17.536950
0.7900	22.965083	17.554554
0.8000	22.962074	17.569293
0.8100	22.959428	17.581278
0.8200	22.957138	17.590665
0.8300	22.955196	17.597645
0.8400	22.953594	17.602440
0.8500	22.952319	17.605304
0.8600	22.951359	17.606507
0.8700	22.950697	17.606340
0.8800	22.950313	17.605100
0.8900	22.950186	17.603090
0.9000	22.950292	17.600615
0.9100	22.950604	17.597971
0.9200	22.951097	17.595448
0.9300	22.951744	17.593320
0.9400	22.952517	17.591850
0.9500	22.953392	17.591279
0.9600	22.954349	17.591832
0.9700	22.955370	17.593712
0.9800	22.956443	17.597103
0.9900	22.957560	17.602170
1.0000	22.958723	17.609061
1.0100	22.959937	17.617903
1.0200	22.961218	17.628812
1.0300	22.962586	17.641887
1.0400	22.964069	17.657217
1.0500	22.965701	17.674879
1.0600	22.967520	17.694941
1.0700	22.969570	17.717463
1.0800	22.971895	17.742498
1.0900	22.974543	17.770087
1.1000	22.977561	17.800266
1.1100	22.980995	17.833059
1.1200	22.984887	17.868479
1.1300	22.989276	17.906526
1.1400	22.994193	17.947182
1.1500	22.999666	17.990411
1.1600	23.005711	18.036156
1.1700	23.012337	18.084335
1.1800	23.019542	18.134838
1.1900	23.027314	18.187525
1.2000	23.035628	18.242224
1.2100	23.044449	18.298729
1.2200	23.053727	18.356795
1.2300	23.063400	18.416146
1.2400	23.073391	18.476465
1.2500	23.083612	18.537401
1.2600	23.093960	18.598572
1.2700	23.104317	18.659562
1.2800	23.114554	18.719929
1.2900	23.124528	18.779211
1.3000	23.134082	18.836926
1.3100	23.143050	18.892584
1.3200	23.151253	18.945691
1.3300	23.158503	18.995753
1.3400	23.164602	19.042292
1.3500	23.169347	19.084845
1.3600	23.172526	19.122977
1.3700	23.173927	19.156286
1.3800	23.173332	19.184414
1.3900	23.170526	19.207050
1.4000	23.165294	19.223940
1.4100	23.157428	19.234891
1.4200	23.146726	19.239777
1.4300	23.132993	19.238541
1.4400	23.116052	19.231203
1.4500	23.095735	19.217856
1.4600	23.071896	19.198670
1.4700	23.044405	19.173889
